<svg id="Camada_2" data-name="Camada 2" xmlns="http://www.w3.org/2000/svg" viewBox="0 0 395.1 189.3"><defs><style>.cls-1{fill:#fff;}</style></defs><path class="cls-1" d="M326.2,162.1a5.34,5.34,0,0,1-4.8-3.5l-14.6-36.1h-.5c-.5,1.4-2,5.8-2,5.8s-4.6,11.4-8.4,20.7c-.8,2.1-3.2,11.2-9.7,12.3a27.47,27.47,0,0,1-5.2.4c-10.8,0-17.9-8.3-17.9-19s6.9-18.6,16.7-18.6c6.4,0,11.8,1.1,13.5,7.7h.6v-7.7a20.83,20.83,0,0,1-2.5,0c-2.2-.4-3.9-1.7-11.7-1.6-12,.1-20.7,8.8-20.7,20.4s9,20.6,21.7,20.5c4.8,0,8.3-.6,10.7-2.2a11.41,11.41,0,0,0,4.8-5.8l2.5-6.4h14.7l3.5,9.6c.8,2.3-.7,3.5-2.1,3.5h-.5v.6h12.3v-.6Zm-26.9-14.8,6.9-18.1,6.6,18.1Z"/><path class="cls-1" d="M200.2,112.5h.8v1H178v-1h.9a3.88,3.88,0,0,0,3.2-1.4,4.46,4.46,0,0,0,1.1-2.6,6.72,6.72,0,0,0-.4-2.4l-6.5-17.4H148.7l-6.8,17.5a6.72,6.72,0,0,0-.4,2.4,4.73,4.73,0,0,0,1.1,2.6,3.88,3.88,0,0,0,3.2,1.4h.9v1H126.2v-1h.9a8.71,8.71,0,0,0,5-1.6,12,12,0,0,0,4-4.8l23.1-55c2.5-5.5,3.8-9,3.8-10.5h.9l27.4,65.5a10.41,10.41,0,0,0,3.9,4.8,9.76,9.76,0,0,0,5,1.5ZM149.9,85.6H175L162.7,52.8,149.9,85.6Z"/><path class="cls-1" d="M202.3,112.5a6.19,6.19,0,0,0,4.6-1.9,6.7,6.7,0,0,0,2-4.6V49.3a6.28,6.28,0,0,0-2-4.5,6.5,6.5,0,0,0-4.6-1.8H201V42h22.4v1H222a6.5,6.5,0,0,0-4.6,1.8,6.28,6.28,0,0,0-2,4.5V106a6.49,6.49,0,0,0,6.5,6.5h1.3v1H201v-1Z"/><path class="cls-1" d="M231.3,50.8c6.8-6.8,15.6-10.3,26.5-10.3s19.8,3.4,26.6,10.3,10.2,15.8,10.2,26.9-3.4,20.1-10.2,26.9-15.7,10.3-26.6,10.3-19.7-3.4-26.5-10.3-10.2-15.8-10.2-26.9,3.4-20,10.2-26.9Zm5.6,51.6c5.3,6.3,12.3,9.4,20.9,9.4s15.7-3.1,20.9-9.4,7.9-14.5,7.9-24.7A42.38,42.38,0,0,0,283,59.8a27.42,27.42,0,0,0-10.2-12,27.78,27.78,0,0,0-15.2-4.2c-8.6,0-15.6,3.1-20.9,9.4S229,67.5,229,77.7s2.6,18.5,7.9,24.7Z"/><path class="cls-1" d="M313.4,45.1h-6.5V106a6.49,6.49,0,0,0,6.5,6.5h1.2l.1,1H292.3v-1h1.3a6.11,6.11,0,0,0,4.5-1.8,6.28,6.28,0,0,0,2-4.5V49.4a6.28,6.28,0,0,0-2-4.5,6.13,6.13,0,0,0-4.5-1.9h-1.3V42h27.6c6.2,0,11.1,1.7,14.6,5.2a17.92,17.92,0,0,1,5.3,13.4,21.16,21.16,0,0,1-5.1,14.2,15.61,15.61,0,0,1-12.3,6,14.7,14.7,0,0,1,3.6,2.8,36.7,36.7,0,0,1,3.7,4.3c5.9,8.4,9.7,13.5,11.4,15.5s3,3.3,3.8,4,1.6,1.4,2.5,2.1a12.75,12.75,0,0,0,2.7,1.6,15.23,15.23,0,0,0,6.3,1.4v1h-5.6a20.67,20.67,0,0,1-8.2-1.6,23.83,23.83,0,0,1-5.7-3.3,25.67,25.67,0,0,1-3.3-3.3c-.9-1.1-3.5-4.6-7.6-10.6s-6.6-9.4-7.2-10.3-1.4-1.7-2.1-2.5c-2.2-2.3-4.4-3.5-6.5-3.5v-1a12.79,12.79,0,0,0,2.1.1c.8,0,2,0,3.3-.1,8.4-.2,13.8-3.7,15.9-10.6a13.59,13.59,0,0,0,.6-3.8V60.7c-.1-4.6-1.3-8.2-3.6-11a11.87,11.87,0,0,0-9.1-4.5c-1.5,0-3.5-.1-6-.1Z"/><path class="cls-1" d="M351.6,112.5a5.83,5.83,0,0,0,4.5-1.9,6.7,6.7,0,0,0,2-4.6V49.3a6.28,6.28,0,0,0-2-4.5,6.44,6.44,0,0,0-4.5-1.8h-1.3V42h22.4v1h-1.3a6.11,6.11,0,0,0-4.5,1.8,6.28,6.28,0,0,0-2,4.5V106a6.49,6.49,0,0,0,6.5,6.5h1.3v1H350.3v-1Z"/><path class="cls-1" d="M326.8,160.6a18.5,18.5,0,0,1-.2-3.1,15.48,15.48,0,0,1,.9-4.9h.5c0,.4-.1.8-.1,1.3a8.27,8.27,0,0,0,2.1,5.8,7.38,7.38,0,0,0,5.6,2.3,8.15,8.15,0,0,0,5.9-2.2,7.31,7.31,0,0,0,2.3-5.5,6.66,6.66,0,0,0-2.2-5.3l-11-10.2a8.92,8.92,0,0,1-3.1-6.9,9.58,9.58,0,0,1,10-9.8,23.27,23.27,0,0,1,4.9.6h2.2v7h-.5a5.28,5.28,0,0,0-1.9-4.3,6.8,6.8,0,0,0-4.8-1.6,6.71,6.71,0,0,0-4.9,1.9,6.63,6.63,0,0,0-2,4.9,6.72,6.72,0,0,0,2.3,5L344.1,146a9.49,9.49,0,0,1,2.9,7.2,10.34,10.34,0,0,1-2.9,7.5c-1.9,2-4.5,2.9-7.8,2.9a20.05,20.05,0,0,1-5.3-.8,8.43,8.43,0,0,1-4.2-2.2Z"/><path class="cls-1" d="M385.6,162.4h.5v.6H373.2v-.6h.5a2.2,2.2,0,0,0,1.8-.8,2.4,2.4,0,0,0,.6-1.5,6.75,6.75,0,0,0-.2-1.4l-3.7-9.7H356.8l-3.8,9.8a3.18,3.18,0,0,0-.2,1.3,2.38,2.38,0,0,0,.6,1.4,2.2,2.2,0,0,0,1.8.8h.5v.6H344.2v-.6h.5a4.9,4.9,0,0,0,2.8-.9,6,6,0,0,0,2.2-2.7l12.9-30.8c1.4-3.1,2.1-5,2.1-5.9h.5l15.3,36.6a6,6,0,0,0,2.2,2.7,4.23,4.23,0,0,0,2.9,1.1Zm-28.1-15h14.1l-6.9-18.3Z"/><path class="cls-1" d="M158,138.5h1.6v1.3a51.56,51.56,0,0,1-8.2.5,42.12,42.12,0,0,1-11.2-2,27.7,27.7,0,0,1-12-7.4c-7.4-7.3-11.8-16.9-13.4-28.6l-8-58.4L79.5,105.6A56.62,56.62,0,0,0,75,119H73.7l-34-73.9L34,110.4a4.47,4.47,0,0,0,1.4,3.9A5.08,5.08,0,0,0,39,116h2.1v1.2H15.6v-1.3h2.1a9.24,9.24,0,0,0,6.2-2.2,9.32,9.32,0,0,0,3.4-5.7l8.3-71.7c-7.7-15-17-22.6-27.7-22.6-1,0-2,0-3,.1V12.5a24.93,24.93,0,0,1,5.8-.9c1.5,0,3.1.1,4.9.2A35.11,35.11,0,0,1,21.8,13a21.48,21.48,0,0,1,6.7,3.1A52.56,52.56,0,0,1,34,20.3a34.47,34.47,0,0,1,4.5,4.8,54.77,54.77,0,0,1,5.6,9.1l31.6,68.5L111,23.5h1.2l12.2,77.7c1.8,12.2,5.8,21.5,11.9,27.8a28.53,28.53,0,0,0,21.7,9.5Z"/></svg>