<?xml version="1.0" standalone="no"?>
<!DOCTYPE svg PUBLIC "-//W3C//DTD SVG 20010904//EN"
 "http://www.w3.org/TR/2001/REC-SVG-20010904/DTD/svg10.dtd">
<svg version="1.0" xmlns="http://www.w3.org/2000/svg"
 width="4401.000000pt" height="1568.000000pt" viewBox="0 0 4401.000000 1568.000000"
 preserveAspectRatio="xMidYMid meet">

<g transform="translate(0.000000,1568.000000) scale(0.100000,-0.100000)"
fill="#000000" stroke="none">
<path d="M25616 15419 c-137 -32 -281 -149 -346 -283 -22 -45 -45 -105 -50
-135 -6 -33 -10 -440 -10 -1071 l0 -1018 -177 -4 c-199 -6 -264 -20 -358 -82
-296 -195 -341 -587 -97 -836 124 -125 226 -160 469 -160 l163 0 0 -1402 c0
-797 5 -1457 10 -1528 27 -356 105 -670 227 -913 179 -357 459 -615 839 -771
264 -108 550 -163 949 -182 238 -11 361 29 489 159 109 110 156 225 156 382 0
151 -49 271 -155 378 -105 106 -229 157 -387 157 -537 1 -882 227 -1001 655
-47 168 -47 175 -47 1663 l0 1402 368 0 c399 0 430 3 542 57 77 37 188 150
228 233 35 71 62 179 62 250 0 226 -155 441 -370 512 -61 21 -88 22 -447 26
l-383 3 0 1017 c0 834 -3 1029 -14 1083 -41 191 -210 365 -396 408 -54 13
-210 12 -264 0z"/>
<path d="M17245 14584 c-215 -54 -403 -239 -461 -454 -21 -79 -23 -233 -5
-310 54 -226 238 -412 467 -470 99 -26 209 -26 308 0 403 103 600 551 405 920
-67 126 -210 248 -349 297 -94 33 -269 42 -365 17z"/>
<path d="M38642 13200 c-123 -44 -271 -148 -468 -328 -221 -201 -476 -499
-1358 -1587 -170 -209 -314 -386 -320 -393 -14 -15 -187 230 -427 603 -465
725 -750 1115 -895 1224 -85 64 -224 126 -350 158 -103 26 -121 28 -334 28
-172 -1 -247 -5 -317 -18 -252 -48 -343 -106 -343 -222 0 -96 30 -141 326
-487 166 -195 486 -586 736 -899 211 -266 909 -1156 922 -1177 5 -8 -49 -80
-162 -215 -347 -414 -847 -960 -1607 -1755 -436 -456 -451 -474 -480 -589 -31
-120 16 -219 150 -321 78 -59 180 -106 279 -127 96 -21 280 -16 366 10 78 24
186 80 249 128 168 130 1209 1298 1709 1920 57 70 107 127 112 127 22 0 542
-723 1050 -1460 391 -567 464 -663 635 -836 99 -100 118 -114 186 -142 187
-77 335 -54 496 77 87 72 117 135 117 250 1 106 -25 194 -89 306 -25 44 -192
289 -372 545 -523 746 -805 1156 -1112 1615 l-288 430 199 255 c801 1025 1314
1763 1528 2195 159 321 191 535 97 642 -57 65 -135 79 -235 43z"/>
<path d="M7785 12900 c-605 -45 -1129 -248 -1595 -620 -58 -46 -177 -156 -265
-244 -248 -249 -405 -463 -550 -751 -206 -405 -305 -834 -305 -1315 0 -481 99
-910 305 -1315 145 -288 302 -502 550 -751 297 -297 581 -495 925 -642 605
-260 1342 -301 1990 -110 302 89 623 250 897 449 66 49 124 89 127 89 3 0 6
-46 6 -102 0 -57 5 -123 11 -148 27 -119 122 -250 233 -322 173 -112 415 -110
585 3 115 77 203 202 230 329 9 42 11 397 9 1450 -4 1240 -6 1406 -21 1497
-113 693 -374 1198 -869 1679 -476 463 -1037 734 -1669 808 -163 19 -444 27
-594 16z m547 -1099 c389 -68 795 -295 1054 -589 398 -452 556 -1024 444
-1606 -66 -341 -253 -688 -510 -946 -446 -449 -1073 -636 -1702 -509 -368 74
-752 299 -1004 587 -188 215 -342 504 -409 770 -55 217 -71 504 -40 721 74
522 372 995 809 1286 253 168 523 268 826 305 120 14 398 4 532 -19z"/>
<path d="M13685 12899 c-408 -29 -809 -139 -1165 -319 -248 -126 -424 -254
-596 -432 -219 -228 -343 -453 -400 -728 -27 -127 -25 -381 4 -517 47 -219
128 -387 271 -564 152 -190 313 -301 633 -438 64 -27 678 -235 1365 -461 686
-227 1267 -423 1291 -437 23 -13 55 -43 70 -65 24 -38 27 -50 27 -132 0 -115
-22 -165 -114 -256 -220 -217 -512 -359 -857 -416 -149 -25 -496 -25 -639 -1
-374 65 -678 214 -953 470 -293 273 -351 314 -471 337 -169 32 -349 -25 -471
-149 -102 -104 -150 -224 -150 -376 0 -204 72 -323 356 -586 478 -445 1003
-693 1639 -775 178 -23 544 -23 720 0 763 99 1390 423 1754 906 118 157 189
303 238 488 35 134 44 391 18 543 -45 270 -168 506 -374 717 -125 128 -277
221 -556 339 -66 27 -678 233 -1360 457 -682 225 -1259 419 -1282 432 -48 28
-88 89 -97 149 -8 60 11 162 42 219 52 96 294 282 475 366 400 185 957 210
1394 64 262 -87 476 -223 717 -453 153 -147 249 -224 309 -250 143 -61 334
-46 476 37 68 39 152 131 189 203 86 170 77 399 -22 545 -44 66 -274 296 -401
403 -601 502 -1313 735 -2080 680z"/>
<path d="M17315 12900 c-119 -19 -221 -75 -310 -171 -61 -67 -94 -124 -122
-214 -17 -58 -18 -161 -18 -2545 0 -2384 1 -2487 18 -2545 31 -98 66 -156 142
-232 168 -168 393 -206 612 -103 85 39 198 150 242 237 65 130 61 -56 61 2643
0 2699 4 2513 -61 2643 -39 76 -154 194 -224 229 -103 53 -236 75 -340 58z"/>
<path d="M21242 12899 c-595 -39 -1142 -252 -1597 -620 -599 -484 -976 -1121
-1084 -1832 -75 -488 -30 -1008 124 -1457 236 -685 801 -1323 1471 -1658 588
-294 1293 -375 1964 -226 382 85 813 290 1127 535 35 27 64 49 66 49 3 0 7
-53 10 -117 8 -176 47 -272 159 -383 118 -119 293 -176 460 -151 212 33 399
209 443 418 12 57 15 274 15 1333 0 762 -4 1321 -10 1405 -53 719 -334 1330
-850 1845 -627 626 -1411 919 -2298 859z m409 -1079 c627 -64 1184 -452 1473
-1026 98 -195 152 -372 181 -587 134 -1027 -622 -1981 -1654 -2086 -594 -61
-1178 165 -1575 609 -209 235 -373 558 -436 860 -49 240 -49 520 0 760 63 303
229 629 437 860 208 230 491 420 774 518 245 86 534 118 800 92z"/>
<path d="M30730 12903 c-389 -19 -782 -121 -1130 -294 -316 -158 -583 -361
-860 -654 -416 -441 -670 -979 -752 -1590 -18 -135 -18 -655 0 -790 82 -611
336 -1149 752 -1590 119 -127 269 -266 375 -348 610 -475 1343 -673 2160 -581
406 45 806 183 1155 400 126 77 321 225 392 296 99 99 151 230 151 383 0 161
-52 284 -163 389 -76 71 -150 111 -248 132 -85 17 -140 17 -226 -1 -98 -21
-178 -61 -276 -140 -294 -235 -590 -357 -959 -395 -353 -35 -698 25 -1016 180
-387 187 -683 483 -865 864 -32 66 -70 154 -84 194 l-26 72 2108 0 c2313 1
2199 -2 2329 62 89 43 189 141 232 227 60 118 71 229 51 487 -49 608 -249
1122 -615 1579 -105 131 -332 359 -468 470 -573 466 -1253 685 -2017 648z
m470 -1098 c662 -110 1223 -568 1454 -1187 20 -53 36 -100 36 -103 0 -3 -805
-5 -1790 -5 l-1789 0 30 88 c231 660 833 1132 1559 1222 104 12 386 4 500 -15z"/>
<path d="M14136 4625 c-51 -18 -100 -67 -124 -124 -11 -25 -50 -212 -87 -416
-36 -203 -69 -380 -71 -391 -5 -21 -11 -22 -218 -25 l-213 -4 -58 -30 c-46
-23 -64 -40 -82 -74 -44 -83 -24 -180 46 -223 34 -22 49 -23 234 -26 142 -3
197 -7 197 -15 0 -7 -21 -141 -46 -299 l-47 -288 -197 0 c-209 0 -241 -5 -299
-48 -66 -49 -91 -163 -51 -230 37 -60 89 -75 288 -80 122 -3 172 -8 169 -16
-2 -6 -35 -191 -72 -411 -53 -310 -66 -411 -61 -448 27 -182 290 -183 375 -2
14 30 42 172 86 437 36 216 67 403 70 416 l5 22 320 0 c216 0 320 -3 320 -10
0 -6 -29 -186 -65 -400 -36 -214 -65 -406 -65 -427 0 -62 37 -124 90 -151 105
-53 234 -4 283 108 12 27 48 209 92 460 l71 415 185 6 c205 8 252 18 307 72
66 63 79 126 41 203 -35 72 -72 84 -272 84 -111 0 -167 4 -167 11 0 11 87 530
95 567 5 22 7 22 173 22 177 0 220 7 272 43 57 38 74 70 78 147 4 70 4 70 -34
109 -50 49 -103 61 -273 61 l-127 0 69 393 c47 269 67 405 62 432 -8 59 -39
103 -88 125 -104 48 -225 3 -279 -104 -18 -35 -64 -267 -163 -813 l-6 -33
-319 0 c-278 0 -320 2 -320 15 0 8 30 178 66 378 71 390 75 453 38 505 -46 62
-145 87 -228 57z m673 -1332 c0 -10 -21 -144 -47 -298 l-48 -280 -322 -3 -322
-2 5 22 c3 13 23 136 45 273 22 138 43 262 46 278 l6 27 319 0 c297 0 319 -1
318 -17z"/>
<path d="M16530 4631 c-88 -19 -152 -80 -170 -163 -8 -39 -10 -445 -8 -1513 3
-1337 4 -1463 20 -1490 90 -165 315 -166 399 -3 18 35 19 66 19 593 l0 555
308 0 307 0 375 -601 c234 -376 386 -610 405 -624 123 -92 304 -37 340 103 13
49 7 121 -14 160 -5 9 -156 253 -335 541 l-326 525 57 30 c186 100 333 254
419 440 65 142 79 218 78 426 0 156 -4 197 -22 262 -48 177 -122 313 -234 432
-117 126 -239 204 -412 265 -167 59 -206 63 -711 66 -253 2 -476 0 -495 -4z
m989 -425 c216 -56 392 -228 448 -437 25 -95 23 -255 -5 -344 -44 -143 -152
-265 -297 -335 -130 -63 -188 -70 -555 -70 l-320 0 0 606 0 606 333 -5 c264
-3 345 -8 396 -21z"/>
<path d="M24899 4626 c-62 -16 -104 -48 -136 -104 l-28 -47 -3 -1455 c-2
-1036 1 -1470 9 -1508 20 -97 111 -171 212 -172 61 0 112 22 160 68 70 68 67
18 68 1161 l0 1026 511 -1020 c280 -561 520 -1031 531 -1044 34 -37 95 -61
160 -61 64 0 105 16 153 62 23 21 177 325 540 1065 l509 1036 5 -1069 5 -1069
28 -47 c87 -148 311 -139 386 15 l21 43 0 1482 c0 1624 4 1516 -61 1581 -45
45 -92 64 -160 63 -70 0 -129 -29 -167 -80 -15 -21 -299 -599 -632 -1285 -333
-686 -607 -1247 -610 -1247 -3 0 -284 561 -625 1246 -340 685 -632 1263 -647
1284 -49 66 -146 99 -229 76z"/>
<path d="M22756 3659 c-302 -32 -582 -173 -753 -380 -171 -205 -257 -436 -270
-719 -26 -588 272 -1052 767 -1194 289 -82 588 -45 815 102 90 58 213 177 273
265 l47 69 3 -113 c6 -215 -22 -369 -93 -514 -80 -162 -194 -275 -351 -346
-92 -42 -179 -59 -304 -59 -276 0 -458 75 -644 265 -111 113 -149 133 -233
120 -57 -8 -132 -60 -156 -109 -46 -89 -18 -164 111 -295 388 -391 1049 -484
1517 -212 290 167 485 454 552 811 16 85 18 161 18 690 0 532 -2 605 -18 685
-107 538 -487 884 -1025 935 -119 11 -142 11 -256 -1z m379 -413 c240 -82 407
-265 476 -522 31 -115 31 -345 0 -459 -94 -348 -360 -555 -713 -555 -134 0
-228 20 -333 70 -190 91 -333 267 -392 480 -25 92 -25 367 0 460 65 239 226
427 437 510 101 40 167 50 310 46 115 -2 147 -7 215 -30z"/>
<path d="M29715 3659 c-310 -33 -588 -186 -766 -421 -300 -399 -317 -1004 -39
-1419 64 -95 231 -255 326 -312 274 -163 602 -221 904 -161 257 52 554 204
594 304 20 50 20 71 0 118 -38 92 -137 144 -235 123 -28 -6 -76 -29 -110 -52
-229 -155 -534 -191 -799 -93 -140 52 -283 166 -367 292 -39 59 -96 198 -107
265 l-7 37 808 0 c560 0 820 4 848 11 101 28 135 85 135 226 0 346 -146 680
-379 868 -158 127 -323 191 -550 214 -115 12 -140 12 -256 0z m335 -384 c175
-54 298 -160 384 -332 31 -61 76 -210 76 -250 0 -10 -147 -13 -700 -13 l-700
0 6 28 c40 168 99 279 208 388 108 108 229 170 381 194 86 13 279 5 345 -15z"/>
<path d="M19040 3627 c-25 -13 -58 -43 -75 -66 l-30 -43 -3 -616 c-4 -659 0
-727 45 -881 122 -423 454 -678 909 -698 149 -7 258 6 379 44 131 42 294 132
354 197 34 36 41 33 41 -16 1 -85 64 -171 145 -198 49 -16 132 -9 181 17 21
11 53 39 69 62 l30 43 3 1001 c2 693 0 1013 -8 1039 -46 159 -286 190 -385 49
l-30 -43 -5 -686 c-5 -678 -5 -688 -27 -745 -65 -171 -215 -300 -413 -354 -89
-24 -309 -24 -399 1 -256 70 -413 252 -451 521 -5 39 -10 329 -10 651 l0 580
-25 51 c-38 75 -89 107 -179 111 -60 3 -78 0 -116 -21z"/>
</g>
</svg>
